PathFileType	4	(X/Y/Z)	./resultDataOpenSim/trcMotMarkerGrf/sub06/qtm-01-01.trc
DataRate	CameraRate	NumFrames	NumMarkers	Units	OrigDataRate	OrigDataStartFrame	OrigNumFrames
250.000000	250.000000	9	24	m	250.000000	60	472
Frame#	Time	L.Toe.Tip			R.Toe.Tip			L.Ankle.Lat			R.Ankle.Lat			L.Ankle.Med			R.Ankle.Med			L.Heel			R.Heel			L.Knee.Lat			R.Knee.Lat			L.Knee.Med			R.Knee.Med			L.Thigh.Upper			R.Thigh.Upper			L.ASIS			R.ASIS			V.Sacral			L.Acromium			R.Acromium			C7			L.Elbow			R.Elbow			L.Wrist.Lat			R.Wrist.Lat
		X1	Y1	Z1	X2	Y2	Z2	X3	Y3	Z3	X4	Y4	Z4	X5	Y5	Z5	X6	Y6	Z6	X7	Y7	Z7	X8	Y8	Z8	X9	Y9	Z9	X10	Y10	Z10	X11	Y11	Z11	X12	Y12	Z12	X13	Y13	Z13	X14	Y14	Z14	X15	Y15	Z15	X16	Y16	Z16	X17	Y17	Z17	X18	Y18	Z18	X19	Y19	Z19	X20	Y20	Z20	X21	Y21	Z21	X22	Y22	Z22	X23	Y23	Z23	X24	Y24	Z24

60	0.236	-1.2365029	0.08121116	-0.098395329	-0.80323087	0.035550028	0.077203479	-1.2563345	0.21049852	-0.12018733	-0.93675522	0.062126991	0.098892202	-1.2358413	0.21489581	-0.039448436	-0.91962163	0.080989713	0.011795705	-1.3089243	0.25920505	-0.067126036	-0.99344727	0.039329059	0.036270919	-0.93238862	0.40194604	-0.15345365	-0.86522642	0.44253681	0.12877297	-0.92655734	0.38880154	-0.030941465	-0.89788897	0.43355782	0.0044238676	-0.98836159	0.79478122	-0.15341708	-0.96189257	0.80490441	0.18891051	-0.90861547	0.8434565	-0.11679921	-0.87662234	0.85569483	0.12723654	-1.0762659	0.9338116	0.027178131	-0.93315412	1.3377172	-0.16221477	-0.92868209	1.3191119	0.1976776	-1.0023048	1.3693276	0.018697383	-0.95689626	1.0153506	-0.23237746	-1.0388093	1.0203598	0.25248746	-0.7595865	0.86593153	-0.20904664	-0.9305721	0.80940471	0.30018252
61	0.24	-1.2190421	0.080209107	-0.097937541	-0.80324613	0.03554553	0.077219384	-1.2412872	0.2090151	-0.11937192	-0.93672763	0.062204566	0.098984689	-1.2206421	0.21359595	-0.03872954	-0.91964697	0.081179262	0.011911618	-1.2946407	0.25660327	-0.065979122	-0.9934897	0.039443631	0.036397527	-0.91995725	0.40456948	-0.15335798	-0.86388059	0.44255909	0.12909409	-0.91333183	0.39142916	-0.03080697	-0.89684455	0.4337269	0.0045967425	-0.98123823	0.79693712	-0.15298674	-0.95608943	0.80607283	0.18984186	-0.90199185	0.84541016	-0.11635325	-0.87147221	0.85705807	0.12814216	-1.0698741	0.93526522	0.027411538	-0.92753666	1.3393612	-0.16203627	-0.92209757	1.3211471	0.19769462	-0.99618071	1.3709303	0.018983873	-0.95303591	1.0172881	-0.23182356	-1.0302964	1.0215942	0.25350079	-0.75703635	0.8660187	-0.20973649	-0.91869009	0.81212737	0.30024149
62	0.244	-1.20115	0.079118065	-0.097690464	-0.80324784	0.035534994	0.077222089	-1.2260484	0.2073481	-0.1185883	-0.93666017	0.062286207	0.09905339	-1.2052996	0.21209495	-0.03800088	-0.91967317	0.081364696	0.012018657	-1.2802235	0.25370259	-0.065079445	-0.99353855	0.039549161	0.036534591	-0.90758177	0.40723745	-0.15322492	-0.86251595	0.44259732	0.12936286	-0.90025756	0.39414363	-0.030656463	-0.89595134	0.43387354	0.0047364064	-0.97400954	0.79909145	-0.15218358	-0.95032623	0.80721102	0.19076004	-0.89537841	0.84735803	-0.11590449	-0.86652656	0.85839647	0.12896336	-1.0636906	0.93669536	0.027614014	-0.92191703	1.340963	-0.16185494	-0.915456	1.3231307	0.19768857	-0.99005877	1.3724732	0.019270828	-0.94918995	1.0192399	-0.23124983	-1.0217451	1.022802	0.25443055	-0.75451763	0.86611915	-0.21048336	-0.90681099	0.8148987	0.30025673
63	0.248	-1.1828436	0.077964144	-0.097649276	-0.80323954	0.03552248	0.077215062	-1.2106559	0.20549564	-0.11782579	-0.93660748	0.062337749	0.099083	-1.1896524	0.21042411	-0.037300537	-0.91969162	0.081545476	0.012113752	-1.2657209	0.25050716	-0.064229263	-0.99358585	0.039667261	0.036668685	-0.89527157	0.40993903	-0.15304436	-0.86121961	0.44263561	0.1295546	-0.88740113	0.39692517	-0.030510525	-0.89501715	0.43401078	0.0048405395	-0.96671512	0.80120473	-0.15129124	-0.94466287	0.80828287	0.19158809	-0.88871572	0.84932486	-0.11538559	-0.86138327	0.85974367	0.12978109	-1.0577216	0.93809427	0.02784082	-0.91628535	1.3425228	-0.1616757	-0.90877485	1.3250677	0.19766792	-0.98394664	1.373951	0.01955935	-0.94538944	1.0211664	-0.23078387	-1.0132389	1.0240103	0.25537447	-0.75203088	0.86622976	-0.21128145	-0.89500383	0.81769669	0.30022279
64	0.252	-1.164147	0.076773319	-0.097712529	-0.80322063	0.035511043	0.077200262	-1.1951373	0.20345925	-0.11706386	-0.93662321	0.062339451	0.099069653	-1.1735919	0.20861767	-0.036657346	-0.91969228	0.081725957	0.012192852	-1.2511657	0.24702917	-0.063272442	-0.99363108	0.039813471	0.036802206	-0.88302082	0.41266064	-0.15281167	-0.86006015	0.44265579	0.12964954	-0.87476345	0.39976781	-0.030366953	-0.89412767	0.43410326	0.0048767618	-0.95939135	0.8032446	-0.15066327	-0.93907779	0.80927737	0.19229712	-0.88198712	0.85130516	-0.11478412	-0.85595107	0.86109656	0.13062056	-1.0519108	0.93945577	0.028106967	-0.91063443	1.3440337	-0.16149813	-0.9020888	1.3269555	0.19764046	-0.97784983	1.3753709	0.01984734	-0.94163146	1.0230601	-0.2303585	-1.0048466	1.025233	0.25638407	-0.74956649	0.86634269	-0.21212211	-0.88327556	0.82051435	0.30014245
65	0.256	-1.1450254	0.075589934	-0.097797797	-0.80318561	0.035500832	0.077179756	-1.179503	0.20124349	-0.116296	-0.93668116	0.062324835	0.09903615	-1.1571158	0.20669524	-0.036055002	-0.91966564	0.081911253	0.012255694	-1.2365466	0.24327902	-0.062207733	-0.99368746	0.039979581	0.03696034	-0.87081399	0.41538466	-0.15252626	-0.85907077	0.44264077	0.12966498	-0.86226444	0.40268963	-0.030189568	-0.89346927	0.43412251	0.0048363675	-0.95201591	0.80519187	-0.15048102	-0.93353384	0.8101974	0.1928906	-0.87524117	0.8532688	-0.11411689	-0.85025191	0.86246063	0.13147139	-1.0461006	0.94074842	0.0283942	-0.90496338	1.3454874	-0.16131654	-0.89542071	1.3287858	0.19760737	-0.97176873	1.3767362	0.020128786	-0.93788955	1.0249393	-0.22977638	-0.99655605	1.0264564	0.25745046	-0.74712276	0.86645572	-0.21300692	-0.87156633	0.8233587	0.30002991
66	0.26	-1.1255165	0.074431502	-0.097877371	-0.80313268	0.03549077	0.07715667	-1.1637522	0.1988573	-0.11553193	-0.93670178	0.062355308	0.09901724	-1.1403587	0.20464603	-0.035444466	-0.91960767	0.082103129	0.012303375	-1.2218362	0.23925153	-0.061081205	-0.99375234	0.040160491	0.037144827	-0.85865016	0.41809629	-0.15218266	-0.85824679	0.44257808	0.12964276	-0.84983637	0.4057087	-0.029936534	-0.89290645	0.43414075	0.0047891885	-0.94452155	0.80703288	-0.15076018	-0.9280081	0.81104842	0.19338292	-0.86856337	0.85518233	-0.11340758	-0.84423457	0.86387053	0.13232932	-1.0401498	0.94193607	0.028675738	-0.89927732	1.3468798	-0.16112653	-0.88877091	1.3305515	0.19756785	-0.96570011	1.3780413	0.020396594	-0.93415102	1.0268032	-0.2289822	-0.98831671	1.02766	0.25854177	-0.74470401	0.86656825	-0.21394091	-0.85982889	0.826236	0.29989896
67	0.264	-1.1057732	0.073259444	-0.097952221	-0.80307073	0.035479201	0.077135229	-1.1478781	0.19631276	-0.11477607	-0.93664588	0.062463725	0.099031811	-1.1235877	0.20244246	-0.034792785	-0.91952347	0.082298663	0.012335159	-1.2070127	0.23493164	-0.059896794	-0.99375535	0.040392426	0.037256384	-0.84654505	0.42079481	-0.15178679	-0.85746896	0.44248845	0.12964027	-0.83746718	0.40883491	-0.029580132	-0.89211842	0.43427305	0.0047887098	-0.93687993	0.80877124	-0.15135262	-0.92249118	0.81183404	0.19378769	-0.86199476	0.85703302	-0.11267627	-0.8379087	0.86533164	0.13320417	-1.0340805	0.94303082	0.02892326	-0.89358623	1.3482116	-0.16092733	-0.88213504	1.3322489	0.19752376	-0.95963973	1.3792789	0.020648741	-0.93043146	1.0286195	-0.22814278	-0.98010194	1.0288381	0.25964174	-0.74231053	0.86667012	-0.21491956	-0.84807295	0.82914639	0.29975491
68	0.268	-1.0859239	0.072027221	-0.09801966	-0.80301861	0.035460227	0.077120635	-1.1318591	0.19361891	-0.11402561	-0.93653264	0.062641876	0.099072885	-1.1070019	0.20009361	-0.034120307	-0.91942855	0.082489391	0.012349889	-1.192045	0.23032465	-0.058685737	-0.99357948	0.04073034	0.037131241	-0.8345128	0.42348985	-0.15136295	-0.85651742	0.44243023	0.12971876	-0.8251589	0.41207657	-0.02910582	-0.89113763	0.43454021	0.0047472918	-0.92915984	0.81045288	-0.1519431	-0.91697912	0.81255604	0.1941152	-0.85546703	0.85884029	-0.11192907	-0.83144395	0.866788	0.1341077	-1.0279838	0.94408533	0.029091869	-0.88789906	1.349483	-0.16072046	-0.87552152	1.3338772	0.19748096	-0.95358561	1.3804438	0.020888191	-0.92675222	1.0303585	-0.22745227	-0.97192658	1.0299986	0.26076145	-0.73994162	0.86675035	-0.2159317	-0.83633929	0.83208511	0.29959771
